<svg id="visual" viewBox="0 0 960 540" width="960" height="540" xmlns="http://www.w3.org/2000/svg" xmlns:xlink="http://www.w3.org/1999/xlink" version="1.1"><rect x="0" y="0" width="960" height="540" fill="#051726"></rect><defs><linearGradient id="grad1_0" x1="43.8%" y1="0%" x2="100%" y2="100%"><stop offset="14.444444444444446%" stop-color="#051726" stop-opacity="1"></stop><stop offset="85.55555555555554%" stop-color="#051726" stop-opacity="1"></stop></linearGradient></defs><defs><linearGradient id="grad2_0" x1="0%" y1="0%" x2="56.3%" y2="100%"><stop offset="14.444444444444446%" stop-color="#051726" stop-opacity="1"></stop><stop offset="85.55555555555554%" stop-color="#051726" stop-opacity="1"></stop></linearGradient></defs><g transform="translate(960, 0)"><path d="M0 486C-67.3 476.8 -134.5 467.5 -178.7 431.5C-222.9 395.4 -244 332.4 -291.3 291.3C-338.7 250.2 -412.2 230.9 -449 186C-485.8 141.1 -485.9 70.5 -486 0L0 0Z" fill="#1f65e1"></path></g><g transform="translate(0, 540)"><path d="M0 -486C56.5 -465.1 113.1 -444.1 176 -425C239 -405.8 308.4 -388.4 343.7 -343.7C378.9 -298.9 380.1 -226.8 398.2 -164.9C416.2 -103.1 451.1 -51.6 486 0L0 0Z" fill="#1f65e1"></path></g></svg>