<svg id="visual" viewBox="0 0 960 540" width="960" height="540" xmlns="http://www.w3.org/2000/svg" xmlns:xlink="http://www.w3.org/1999/xlink" version="1.1"><rect x="0" y="0" width="960" height="540" fill="#337ff0"></rect><defs><linearGradient id="grad1_0" x1="43.8%" y1="0%" x2="100%" y2="100%"><stop offset="14.444444444444446%" stop-color="#337ff0" stop-opacity="1"></stop><stop offset="85.55555555555554%" stop-color="#337ff0" stop-opacity="1"></stop></linearGradient></defs><defs><linearGradient id="grad2_0" x1="0%" y1="0%" x2="56.3%" y2="100%"><stop offset="14.444444444444446%" stop-color="#337ff0" stop-opacity="1"></stop><stop offset="85.55555555555554%" stop-color="#337ff0" stop-opacity="1"></stop></linearGradient></defs><g transform="translate(960, 0)"><path d="M0 486C-55.3 452.9 -110.6 419.9 -163 393.6C-215.4 367.3 -264.8 347.7 -316.1 316.1C-367.3 284.4 -420.4 240.7 -449 186C-477.6 131.3 -481.8 65.6 -486 0L0 0Z" fill="#ffffff"></path></g><g transform="translate(0, 540)"><path d="M0 -486C61.1 -465.6 122.1 -445.2 172.2 -415.7C222.3 -386.2 261.5 -347.6 310.4 -310.4C359.4 -273.2 418.1 -237.5 449 -186C479.9 -134.5 483 -67.2 486 0L0 0Z" fill="#ffffff"></path></g></svg>